<svg xmlns="http://www.w3.org/2000/svg" viewBox="-25 -25 370 370" width="370" height="370"><defs><filter id="wc" x="-10%" y="-10%" width="120%" height="120%" color-interpolation-filters="sRGB"><feTurbulence type="fractalNoise" baseFrequency="0.045" numOctaves="2" seed="4" result="n"/><feDisplacementMap in="SourceGraphic" in2="n" scale="4" xChannelSelector="R" yChannelSelector="G" result="d"/><feTurbulence type="fractalNoise" baseFrequency="0.55" numOctaves="2" seed="9" result="g"/><feColorMatrix in="g" type="matrix" values="0 0 0 0 0 0 0 0 0 0 0 0 0 0 0 0 0 0 -0.7 1.2" result="ga"/><feComposite in="d" in2="ga" operator="in"/></filter><filter id="wc2" x="-10%" y="-10%" width="120%" height="120%"><feTurbulence type="fractalNoise" baseFrequency="0.06" numOctaves="2" seed="2" result="n"/><feDisplacementMap in="SourceGraphic" in2="n" scale="2.5" xChannelSelector="R" yChannelSelector="G"/></filter><linearGradient id="g1" x1="0" y1="0" x2="1" y2="0"><stop offset="0" stop-color="#76855f" stop-opacity="0.95"/><stop offset="0.55" stop-color="#98a585" stop-opacity="0.9"/><stop offset="1" stop-color="#b9c2a4" stop-opacity="0.85"/></linearGradient><linearGradient id="g2" x1="0" y1="0" x2="1" y2="0"><stop offset="0" stop-color="#666b43" stop-opacity="0.95"/><stop offset="0.55" stop-color="#858a5c" stop-opacity="0.9"/><stop offset="1" stop-color="#a3a77e" stop-opacity="0.85"/></linearGradient><linearGradient id="g3" x1="0" y1="0" x2="1" y2="0"><stop offset="0" stop-color="#8e3824" stop-opacity="0.95"/><stop offset="0.55" stop-color="#b2553a" stop-opacity="0.9"/><stop offset="1" stop-color="#cf7d5c" stop-opacity="0.85"/></linearGradient><linearGradient id="g4" x1="0" y1="0" x2="1" y2="0"><stop offset="0" stop-color="#b09473" stop-opacity="0.95"/><stop offset="0.55" stop-color="#cdb495" stop-opacity="0.9"/><stop offset="1" stop-color="#e6d6c0" stop-opacity="0.85"/></linearGradient><linearGradient id="g5" x1="0" y1="0" x2="1" y2="0"><stop offset="0" stop-color="#c7a57f" stop-opacity="0.95"/><stop offset="0.55" stop-color="#e0c7a6" stop-opacity="0.9"/><stop offset="1" stop-color="#f3e3cc" stop-opacity="0.85"/></linearGradient><linearGradient id="g6" x1="0" y1="0" x2="1" y2="0"><stop offset="0" stop-color="#ecc9a2" stop-opacity="0.9"/><stop offset="0.35" stop-color="#ecc9a2" stop-opacity="0.85"/><stop offset="0.7" stop-color="#d49a68" stop-opacity="0.88"/><stop offset="1" stop-color="#a9683d" stop-opacity="0.95"/></linearGradient><linearGradient id="g7" x1="0" y1="0" x2="1" y2="0"><stop offset="0" stop-color="#f6d2a4" stop-opacity="0.9"/><stop offset="0.35" stop-color="#f6d2a4" stop-opacity="0.85"/><stop offset="0.7" stop-color="#e8a764" stop-opacity="0.88"/><stop offset="1" stop-color="#cf8540" stop-opacity="0.95"/></linearGradient><linearGradient id="g8" x1="0" y1="0" x2="1" y2="0"><stop offset="0" stop-color="#f3e3cc" stop-opacity="0.9"/><stop offset="0.35" stop-color="#f3e3cc" stop-opacity="0.85"/><stop offset="0.7" stop-color="#e0c7a6" stop-opacity="0.88"/><stop offset="1" stop-color="#c7a57f" stop-opacity="0.95"/></linearGradient><linearGradient id="g9" x1="0" y1="0" x2="1" y2="0"><stop offset="0" stop-color="#d6927a" stop-opacity="0.9"/><stop offset="0.35" stop-color="#d6927a" stop-opacity="0.85"/><stop offset="0.7" stop-color="#b8654e" stop-opacity="0.88"/><stop offset="1" stop-color="#9c4e3b" stop-opacity="0.95"/></linearGradient><linearGradient id="g10" x1="0" y1="0" x2="1" y2="0"><stop offset="0" stop-color="#f2cbb6" stop-opacity="0.9"/><stop offset="0.35" stop-color="#f2cbb6" stop-opacity="0.85"/><stop offset="0.7" stop-color="#d6927a" stop-opacity="0.88"/><stop offset="1" stop-color="#b8654e" stop-opacity="0.95"/></linearGradient></defs><g filter="url(#wc)"><path d="M95,95 Q49.8,80.3 5.7,62.5" fill="none" stroke="#5f6d4b" stroke-width="1.1" stroke-linecap="round" stroke-opacity="0.85"/><g transform="translate(72.5,87.5) rotate(-192.2)"><path d="M0,0 C7.3,-11.4 20.5,-10.9 29.3,-2.2 C20.5,7.9 7.3,8.4 0,0Z" fill="url(#g1)" stroke="#5f6d4b" stroke-opacity=".45" stroke-width=".7"/><path d="M0,0 Q14.7,-1.2 27,-2.1" fill="none" stroke="#5f6d4b" stroke-opacity=".5" stroke-width=".7"/></g><g transform="translate(50.1,79.5) rotate(-121.9)"><path d="M0,0 C6.7,-7.9 18.8,-7.4 26.8,2.1 C18.8,10.2 6.7,10.6 0,0Z" fill="url(#g1)" stroke="#5f6d4b" stroke-opacity=".45" stroke-width=".7"/><path d="M0,0 Q13.4,1.1 24.7,1.9" fill="none" stroke="#5f6d4b" stroke-opacity=".5" stroke-width=".7"/></g><g transform="translate(27.8,71.2) rotate(-202.1)"><path d="M0,0 C6.4,-9.9 18.1,-9.5 25.8,-1.9 C18.1,6.9 6.4,7.3 0,0Z" fill="url(#g1)" stroke="#5f6d4b" stroke-opacity=".45" stroke-width=".7"/><path d="M0,0 Q12.9,-1 23.7,-1.8" fill="none" stroke="#5f6d4b" stroke-opacity=".5" stroke-width=".7"/></g><g transform="translate(7.5,63.2) rotate(-118)"><path d="M0,0 C5.9,-6.8 16.4,-6.4 23.5,1.8 C16.4,8.8 5.9,9.2 0,0Z" fill="url(#g1)" stroke="#5f6d4b" stroke-opacity=".45" stroke-width=".7"/><path d="M0,0 Q11.7,1 21.6,1.7" fill="none" stroke="#5f6d4b" stroke-opacity=".5" stroke-width=".7"/></g><g transform="translate(5.7,62.5) rotate(205.9)"><path d="M0,0 C6,-8 16.8,-7.6 24,0 C16.8,7.6 6,8 0,0Z" fill="url(#g1)" stroke="#5f6d4b" stroke-opacity=".45" stroke-width=".7"/><path d="M0,0 Q12,0 22.1,0" fill="none" stroke="#5f6d4b" stroke-opacity=".5" stroke-width=".7"/></g></g><g filter="url(#wc)"><path d="M80,110 Q77.4,198.5 27.5,271.7" fill="none" stroke="#5f6d4b" stroke-width="1.1" stroke-linecap="round" stroke-opacity="0.85"/><g transform="translate(75.7,153.3) rotate(55.1)"><path d="M0,0 C6.9,-11.4 19.2,-10.9 27.4,-2.2 C19.2,7.9 6.9,8.4 0,0Z" fill="url(#g1)" stroke="#5f6d4b" stroke-opacity=".45" stroke-width=".7"/><path d="M0,0 Q13.7,-1.2 25.2,-2.1" fill="none" stroke="#5f6d4b" stroke-opacity=".5" stroke-width=".7"/></g><g transform="translate(70.3,178.4) rotate(145.8)"><path d="M0,0 C7.5,-8.1 21,-7.6 30,2.1 C21,10.5 7.5,10.9 0,0Z" fill="url(#g1)" stroke="#5f6d4b" stroke-opacity=".45" stroke-width=".7"/><path d="M0,0 Q15,1.1 27.6,2" fill="none" stroke="#5f6d4b" stroke-opacity=".5" stroke-width=".7"/></g><g transform="translate(62.8,202.7) rotate(79.4)"><path d="M0,0 C5.9,-10.5 16.5,-10 23.6,-2.1 C16.5,7.3 5.9,7.8 0,0Z" fill="url(#g1)" stroke="#5f6d4b" stroke-opacity=".45" stroke-width=".7"/><path d="M0,0 Q11.8,-1.1 21.7,-1.9" fill="none" stroke="#5f6d4b" stroke-opacity=".5" stroke-width=".7"/></g><g transform="translate(53.1,226.4) rotate(155.1)"><path d="M0,0 C7.2,-7.4 20.1,-7 28.6,2 C20.1,9.6 7.2,10.1 0,0Z" fill="url(#g1)" stroke="#5f6d4b" stroke-opacity=".45" stroke-width=".7"/><path d="M0,0 Q14.3,1.1 26.4,1.8" fill="none" stroke="#5f6d4b" stroke-opacity=".5" stroke-width=".7"/></g><g transform="translate(41.4,249.4) rotate(76.1)"><path d="M0,0 C6.3,-9.6 17.7,-9.2 25.2,-1.9 C17.7,6.7 6.3,7.1 0,0Z" fill="url(#g1)" stroke="#5f6d4b" stroke-opacity=".45" stroke-width=".7"/><path d="M0,0 Q12.6,-1 23.2,-1.8" fill="none" stroke="#5f6d4b" stroke-opacity=".5" stroke-width=".7"/></g><g transform="translate(29.4,268.7) rotate(162.1)"><path d="M0,0 C5.1,-6.8 14.3,-6.4 20.5,1.8 C14.3,8.8 5.1,9.2 0,0Z" fill="url(#g1)" stroke="#5f6d4b" stroke-opacity=".45" stroke-width=".7"/><path d="M0,0 Q10.2,1 18.9,1.7" fill="none" stroke="#5f6d4b" stroke-opacity=".5" stroke-width=".7"/></g><g transform="translate(27.5,271.7) rotate(99.2)"><path d="M0,0 C6,-8 16.8,-7.6 24,0 C16.8,7.6 6,8 0,0Z" fill="url(#g1)" stroke="#5f6d4b" stroke-opacity=".45" stroke-width=".7"/><path d="M0,0 Q12,0 22.1,0" fill="none" stroke="#5f6d4b" stroke-opacity=".5" stroke-width=".7"/></g></g><g filter="url(#wc)"><path d="M105,80 Q90.6,41.6 93.9,0.8" fill="none" stroke="#545936" stroke-width="1.1" stroke-linecap="round" stroke-opacity="0.85"/><g transform="translate(98.9,60.7) rotate(-149.9)"><path d="M0,0 C5.8,-10.2 16.4,-9.8 23.4,-2 C16.4,7.1 5.8,7.6 0,0Z" fill="url(#g2)" stroke="#545936" stroke-opacity=".45" stroke-width=".7"/><path d="M0,0 Q11.7,-1.1 21.5,-1.9" fill="none" stroke="#545936" stroke-opacity=".5" stroke-width=".7"/></g><g transform="translate(93.9,31.1) rotate(-57.8)"><path d="M0,0 C5.6,-6.8 15.7,-6.4 22.4,1.8 C15.7,8.8 5.6,9.3 0,0Z" fill="url(#g2)" stroke="#545936" stroke-opacity=".45" stroke-width=".7"/><path d="M0,0 Q11.2,1 20.7,1.7" fill="none" stroke="#545936" stroke-opacity=".5" stroke-width=".7"/></g><g transform="translate(93.7,2.4) rotate(-123.6)"><path d="M0,0 C5.5,-8.3 15.4,-7.9 22.1,-1.6 C15.4,5.8 5.5,6.1 0,0Z" fill="url(#g2)" stroke="#545936" stroke-opacity=".45" stroke-width=".7"/><path d="M0,0 Q11,-0.9 20.3,-1.5" fill="none" stroke="#545936" stroke-opacity=".5" stroke-width=".7"/></g><g transform="translate(93.9,0.8) rotate(264.8)"><path d="M0,0 C5.2,-7.2 14.6,-6.8 20.8,0 C14.6,6.8 5.2,7.2 0,0Z" fill="url(#g2)" stroke="#545936" stroke-opacity=".45" stroke-width=".7"/><path d="M0,0 Q10.4,0 19.1,0" fill="none" stroke="#545936" stroke-opacity=".5" stroke-width=".7"/></g></g><g filter="url(#wc)"><path d="M125,88 Q215,55 305,84" fill="none" stroke="#742b1b" stroke-width="1.2" stroke-linecap="round" stroke-opacity="0.85"/><g transform="translate(139.4,83.1) rotate(-69.2)"><path d="M0,0 C4.9,-5.5 13.8,-5.3 19.8,0 C13.8,5.3 4.9,5.5 0,0Z" fill="url(#g3)" stroke="#742b1b" stroke-opacity=".45" stroke-width=".7"/></g><g transform="translate(139.4,83.1) rotate(36)"><path d="M0,0 C4.9,-5.5 13.8,-5.3 19.8,0 C13.8,5.3 4.9,5.5 0,0Z" fill="url(#g3)" stroke="#742b1b" stroke-opacity=".45" stroke-width=".7"/></g><g transform="translate(154.1,78.9) rotate(-60.9)"><path d="M0,0 C4.4,-5 12.4,-4.7 17.8,0 C12.4,4.7 4.4,5 0,0Z" fill="url(#g3)" stroke="#742b1b" stroke-opacity=".45" stroke-width=".7"/></g><g transform="translate(154.1,78.9) rotate(44.2)"><path d="M0,0 C4.4,-5 12.4,-4.7 17.8,0 C12.4,4.7 4.4,5 0,0Z" fill="url(#g3)" stroke="#742b1b" stroke-opacity=".45" stroke-width=".7"/></g><g transform="translate(168.9,75.6) rotate(-60.1)"><path d="M0,0 C4.7,-5.2 13,-5 18.6,0 C13,5 4.7,5.2 0,0Z" fill="url(#g3)" stroke="#742b1b" stroke-opacity=".45" stroke-width=".7"/></g><g transform="translate(168.9,75.6) rotate(37.9)"><path d="M0,0 C4.7,-5.2 13,-5 18.6,0 C13,5 4.7,5.2 0,0Z" fill="url(#g3)" stroke="#742b1b" stroke-opacity=".45" stroke-width=".7"/></g><g transform="translate(183.6,73.1) rotate(-60.8)"><path d="M0,0 C3.8,-4.3 10.8,-4.1 15.4,0 C10.8,4.1 3.8,4.3 0,0Z" fill="url(#g3)" stroke="#742b1b" stroke-opacity=".45" stroke-width=".7"/></g><g transform="translate(183.6,73.1) rotate(36.9)"><path d="M0,0 C3.8,-4.3 10.8,-4.1 15.4,0 C10.8,4.1 3.8,4.3 0,0Z" fill="url(#g3)" stroke="#742b1b" stroke-opacity=".45" stroke-width=".7"/></g><g transform="translate(198.3,71.4) rotate(-55)"><path d="M0,0 C4,-4.5 11.1,-4.2 15.9,0 C11.1,4.2 4,4.5 0,0Z" fill="url(#g3)" stroke="#742b1b" stroke-opacity=".45" stroke-width=".7"/></g><g transform="translate(198.3,71.4) rotate(48.1)"><path d="M0,0 C4,-4.5 11.1,-4.2 15.9,0 C11.1,4.2 4,4.5 0,0Z" fill="url(#g3)" stroke="#742b1b" stroke-opacity=".45" stroke-width=".7"/></g><g transform="translate(213,70.6) rotate(-43.9)"><path d="M0,0 C3.4,-3.8 9.5,-3.6 13.6,0 C9.5,3.6 3.4,3.8 0,0Z" fill="url(#g3)" stroke="#742b1b" stroke-opacity=".45" stroke-width=".7"/></g><g transform="translate(213,70.6) rotate(50.1)"><path d="M0,0 C3.4,-3.8 9.5,-3.6 13.6,0 C9.5,3.6 3.4,3.8 0,0Z" fill="url(#g3)" stroke="#742b1b" stroke-opacity=".45" stroke-width=".7"/></g><g transform="translate(227.8,70.5) rotate(-48.4)"><path d="M0,0 C2.9,-3.2 8,-3.1 11.5,0 C8,3.1 2.9,3.2 0,0Z" fill="url(#g3)" stroke="#742b1b" stroke-opacity=".45" stroke-width=".7"/></g><g transform="translate(227.8,70.5) rotate(52.9)"><path d="M0,0 C2.9,-3.2 8,-3.1 11.5,0 C8,3.1 2.9,3.2 0,0Z" fill="url(#g3)" stroke="#742b1b" stroke-opacity=".45" stroke-width=".7"/></g><g transform="translate(242.5,71.3) rotate(-34.7)"><path d="M0,0 C2.9,-3.2 8.1,-3.1 11.5,0 C8.1,3.1 2.9,3.2 0,0Z" fill="url(#g3)" stroke="#742b1b" stroke-opacity=".45" stroke-width=".7"/></g><g transform="translate(242.5,71.3) rotate(48.7)"><path d="M0,0 C2.9,-3.2 8.1,-3.1 11.5,0 C8.1,3.1 2.9,3.2 0,0Z" fill="url(#g3)" stroke="#742b1b" stroke-opacity=".45" stroke-width=".7"/></g><g transform="translate(257.2,73) rotate(-34.5)"><path d="M0,0 C2.4,-2.7 6.7,-2.5 9.5,0 C6.7,2.5 2.4,2.7 0,0Z" fill="url(#g3)" stroke="#742b1b" stroke-opacity=".45" stroke-width=".7"/></g><g transform="translate(257.2,73) rotate(55.3)"><path d="M0,0 C2.4,-2.7 6.7,-2.5 9.5,0 C6.7,2.5 2.4,2.7 0,0Z" fill="url(#g3)" stroke="#742b1b" stroke-opacity=".45" stroke-width=".7"/></g><g transform="translate(271.9,75.4) rotate(-36.6)"><path d="M0,0 C2.2,-2.5 6.2,-2.4 8.8,0 C6.2,2.4 2.2,2.5 0,0Z" fill="url(#g3)" stroke="#742b1b" stroke-opacity=".45" stroke-width=".7"/></g><g transform="translate(271.9,75.4) rotate(51.8)"><path d="M0,0 C2.2,-2.5 6.2,-2.4 8.8,0 C6.2,2.4 2.2,2.5 0,0Z" fill="url(#g3)" stroke="#742b1b" stroke-opacity=".45" stroke-width=".7"/></g><g transform="translate(286.7,78.7) rotate(-24.3)"><path d="M0,0 C2.2,-2.5 6.2,-2.4 8.9,0 C6.2,2.4 2.2,2.5 0,0Z" fill="url(#g3)" stroke="#742b1b" stroke-opacity=".45" stroke-width=".7"/></g><g transform="translate(286.7,78.7) rotate(51.1)"><path d="M0,0 C2.2,-2.5 6.2,-2.4 8.9,0 C6.2,2.4 2.2,2.5 0,0Z" fill="url(#g3)" stroke="#742b1b" stroke-opacity=".45" stroke-width=".7"/></g><g transform="translate(301.4,82.9) rotate(-27.9)"><path d="M0,0 C1.6,-1.8 4.6,-1.8 6.6,0 C4.6,1.8 1.6,1.8 0,0Z" fill="url(#g3)" stroke="#742b1b" stroke-opacity=".45" stroke-width=".7"/></g><g transform="translate(301.4,82.9) rotate(52.2)"><path d="M0,0 C1.6,-1.8 4.6,-1.8 6.6,0 C4.6,1.8 1.6,1.8 0,0Z" fill="url(#g3)" stroke="#742b1b" stroke-opacity=".45" stroke-width=".7"/></g><g transform="translate(305,84) rotate(17.9)"><path d="M0,0 C2.1,-2.3 6,-2.2 8.6,0 C6,2.2 2.1,2.3 0,0Z" fill="url(#g3)" stroke="#742b1b" stroke-opacity=".45" stroke-width=".7"/></g></g><g filter="url(#wc)"><path d="M120,70 Q168.6,54.3 206.6,20" fill="none" stroke="#957a5b" stroke-width="1.1" stroke-linecap="round" stroke-opacity="0.85"/><g transform="translate(143.7,61) rotate(-60.9)"><path d="M0,0 C5.3,-9.1 14.8,-8.7 21.2,-1.8 C14.8,6.3 5.3,6.7 0,0Z" fill="url(#g4)" stroke="#957a5b" stroke-opacity=".45" stroke-width=".7"/><path d="M0,0 Q10.6,-0.9 19.5,-1.7" fill="none" stroke="#957a5b" stroke-opacity=".5" stroke-width=".7"/></g><g transform="translate(160.5,52.7) rotate(4.6)"><path d="M0,0 C5.4,-6.4 15.2,-6 21.7,1.7 C15.2,8.3 5.4,8.7 0,0Z" fill="url(#g4)" stroke="#957a5b" stroke-opacity=".45" stroke-width=".7"/><path d="M0,0 Q10.9,0.9 20,1.6" fill="none" stroke="#957a5b" stroke-opacity=".5" stroke-width=".7"/></g><g transform="translate(176.6,43.1) rotate(-77)"><path d="M0,0 C5.5,-8.2 15.5,-7.9 22.2,-1.6 C15.5,5.7 5.5,6.1 0,0Z" fill="url(#g4)" stroke="#957a5b" stroke-opacity=".45" stroke-width=".7"/><path d="M0,0 Q11.1,-0.9 20.4,-1.5" fill="none" stroke="#957a5b" stroke-opacity=".5" stroke-width=".7"/></g><g transform="translate(192,32.2) rotate(-5.7)"><path d="M0,0 C5.1,-5.8 14.4,-5.4 20.5,1.5 C14.4,7.5 5.1,7.8 0,0Z" fill="url(#g4)" stroke="#957a5b" stroke-opacity=".45" stroke-width=".7"/><path d="M0,0 Q10.3,0.8 18.9,1.4" fill="none" stroke="#957a5b" stroke-opacity=".5" stroke-width=".7"/></g><g transform="translate(205.1,21.4) rotate(-84.2)"><path d="M0,0 C4.6,-7.4 12.8,-7 18.3,-1.4 C12.8,5.1 4.6,5.4 0,0Z" fill="url(#g4)" stroke="#957a5b" stroke-opacity=".45" stroke-width=".7"/><path d="M0,0 Q9.2,-0.8 16.9,-1.3" fill="none" stroke="#957a5b" stroke-opacity=".5" stroke-width=".7"/></g><g transform="translate(206.6,20) rotate(325.4)"><path d="M0,0 C4.8,-6.4 13.4,-6.1 19.2,0 C13.4,6.1 4.8,6.4 0,0Z" fill="url(#g4)" stroke="#957a5b" stroke-opacity=".45" stroke-width=".7"/><path d="M0,0 Q9.6,0 17.7,0" fill="none" stroke="#957a5b" stroke-opacity=".5" stroke-width=".7"/></g></g><g filter="url(#wc)"><path d="M128,128 Q147.2,172.6 189.6,196.4" fill="none" stroke="#d8c3a7" stroke-width="1.1" stroke-linecap="round" stroke-opacity="0.85"/><g transform="translate(139,149) rotate(16.5)"><path d="M0,0 C6.2,-9.1 17.4,-8.7 24.9,-1.8 C17.4,6.3 6.2,6.7 0,0Z" fill="url(#g5)" stroke="#b08e69" stroke-opacity=".45" stroke-width=".7"/><path d="M0,0 Q12.5,-0.9 22.9,-1.7" fill="none" stroke="#b08e69" stroke-opacity=".5" stroke-width=".7"/></g><g transform="translate(149.2,163) rotate(83.8)"><path d="M0,0 C6,-6.4 16.9,-6 24.2,1.7 C16.9,8.3 6,8.7 0,0Z" fill="url(#g5)" stroke="#b08e69" stroke-opacity=".45" stroke-width=".7"/><path d="M0,0 Q12.1,0.9 22.2,1.6" fill="none" stroke="#b08e69" stroke-opacity=".5" stroke-width=".7"/></g><g transform="translate(161,175.6) rotate(10.8)"><path d="M0,0 C5.1,-8.2 14.2,-7.9 20.3,-1.6 C14.2,5.7 5.1,6.1 0,0Z" fill="url(#g5)" stroke="#b08e69" stroke-opacity=".45" stroke-width=".7"/><path d="M0,0 Q10.2,-0.9 18.7,-1.5" fill="none" stroke="#b08e69" stroke-opacity=".5" stroke-width=".7"/></g><g transform="translate(174.5,186.7) rotate(67.6)"><path d="M0,0 C5.1,-5.8 14.4,-5.4 20.5,1.5 C14.4,7.5 5.1,7.8 0,0Z" fill="url(#g5)" stroke="#b08e69" stroke-opacity=".45" stroke-width=".7"/><path d="M0,0 Q10.3,0.8 18.9,1.4" fill="none" stroke="#b08e69" stroke-opacity=".5" stroke-width=".7"/></g><g transform="translate(187.9,195.4) rotate(-12.6)"><path d="M0,0 C5.3,-7.4 14.7,-7 21.1,-1.4 C14.7,5.1 5.3,5.4 0,0Z" fill="url(#g5)" stroke="#b08e69" stroke-opacity=".45" stroke-width=".7"/><path d="M0,0 Q10.5,-0.8 19.4,-1.3" fill="none" stroke="#b08e69" stroke-opacity=".5" stroke-width=".7"/></g><g transform="translate(189.6,196.4) rotate(43.2)"><path d="M0,0 C4.8,-6.4 13.4,-6.1 19.2,0 C13.4,6.1 4.8,6.4 0,0Z" fill="url(#g5)" stroke="#b08e69" stroke-opacity=".45" stroke-width=".7"/><path d="M0,0 Q9.6,0 17.7,0" fill="none" stroke="#b08e69" stroke-opacity=".5" stroke-width=".7"/></g></g><g filter="url(#wc2)"><path d="M135,104 Q183.1,106.1 227.9,123.8" fill="none" stroke="#cdb79c" stroke-width="1.2" stroke-linecap="round" stroke-opacity="0.85"/><path d="M163.6,106.6 Q170.3,100.2 177.1,97.7" fill="none" stroke="#cdb79c" stroke-width="0.8" stroke-linecap="round" stroke-opacity="0.85"/><path d="M175.8,108.7 Q180,111.2 184.2,117.7" fill="none" stroke="#cdb79c" stroke-width="0.8" stroke-linecap="round" stroke-opacity="0.85"/><path d="M187.9,111.2 Q192.3,106.2 196.8,105.3" fill="none" stroke="#cdb79c" stroke-width="0.8" stroke-linecap="round" stroke-opacity="0.85"/><path d="M199.8,114.3 Q202.6,117.6 205.3,124.9" fill="none" stroke="#cdb79c" stroke-width="0.8" stroke-linecap="round" stroke-opacity="0.85"/><path d="M211.7,117.9 Q217.5,113.1 223.4,112.2" fill="none" stroke="#cdb79c" stroke-width="0.8" stroke-linecap="round" stroke-opacity="0.85"/><path d="M223.4,122 Q227.1,128 230.8,138.1" fill="none" stroke="#cdb79c" stroke-width="0.8" stroke-linecap="round" stroke-opacity="0.85"/><circle cx="227.9" cy="123.8" r="3.3" fill="#3b2419"/><circle cx="226.9" cy="122.6" r="1.2" fill="#8a5a41" fill-opacity=".7"/><circle cx="177.1" cy="97.7" r="3.6" fill="#3b2419"/><circle cx="176" cy="96.4" r="1.3" fill="#8a5a41" fill-opacity=".7"/><circle cx="184.2" cy="117.7" r="2.8" fill="#3b2419"/><circle cx="183.3" cy="116.7" r="1" fill="#8a5a41" fill-opacity=".7"/><circle cx="196.8" cy="105.3" r="2.8" fill="#3b2419"/><circle cx="196" cy="104.3" r="1" fill="#8a5a41" fill-opacity=".7"/><circle cx="205.3" cy="124.9" r="3.7" fill="#3b2419"/><circle cx="204.2" cy="123.6" r="1.3" fill="#8a5a41" fill-opacity=".7"/><circle cx="223.4" cy="112.2" r="3.6" fill="#3b2419"/><circle cx="222.3" cy="111" r="1.3" fill="#8a5a41" fill-opacity=".7"/><circle cx="230.8" cy="138.1" r="2.9" fill="#3b2419"/><circle cx="230" cy="137.1" r="1" fill="#8a5a41" fill-opacity=".7"/></g><g filter="url(#wc)"><g transform="translate(98,158) rotate(15.7)"><path d="M0,0 C5.4,-14.8 25.3,-20.5 34.4,-8.3 C38,-2.3 38,3 34.4,8.3 C25.3,17 5.4,12.2 0,0Z" fill="url(#g6)" stroke="#8c5430" stroke-opacity=".75" stroke-width="1"/><path d="M4.3,0 Q18.1,-5.3 31.9,-9.1" fill="none" stroke="#8c5430" stroke-opacity=".4" stroke-width=".6"/><path d="M4.3,0 Q18.1,0 31.9,0" fill="none" stroke="#8c5430" stroke-opacity=".4" stroke-width=".6"/><path d="M4.3,0 Q18.1,5.3 31.9,9.1" fill="none" stroke="#8c5430" stroke-opacity=".4" stroke-width=".6"/></g><g transform="translate(98,158) rotate(77.7)"><path d="M0,0 C5.6,-13.6 26,-18.9 35.2,-8.3 C38.9,-2.3 38.9,3 35.2,8.3 C26,18.1 5.6,13 0,0Z" fill="url(#g6)" stroke="#8c5430" stroke-opacity=".75" stroke-width="1"/><path d="M4.4,0 Q18.5,-5.3 32.6,-9.1" fill="none" stroke="#8c5430" stroke-opacity=".4" stroke-width=".6"/><path d="M4.4,0 Q18.5,0 32.6,0" fill="none" stroke="#8c5430" stroke-opacity=".4" stroke-width=".6"/><path d="M4.4,0 Q18.5,5.3 32.6,9.1" fill="none" stroke="#8c5430" stroke-opacity=".4" stroke-width=".6"/></g><g transform="translate(98,158) rotate(117.3)"><path d="M0,0 C4.8,-14.8 22.3,-20.6 30.3,-8.3 C33.5,-2.3 33.5,3 30.3,8.3 C22.3,17.2 4.8,12.4 0,0Z" fill="url(#g6)" stroke="#8c5430" stroke-opacity=".75" stroke-width="1"/><path d="M3.8,0 Q16,-5.3 28.1,-9.1" fill="none" stroke="#8c5430" stroke-opacity=".4" stroke-width=".6"/><path d="M3.8,0 Q16,0 28.1,0" fill="none" stroke="#8c5430" stroke-opacity=".4" stroke-width=".6"/><path d="M3.8,0 Q16,5.3 28.1,9.1" fill="none" stroke="#8c5430" stroke-opacity=".4" stroke-width=".6"/></g><g transform="translate(98,158) rotate(177.1)"><path d="M0,0 C5,-14.4 23.3,-20 31.6,-8.3 C34.9,-2.3 34.9,3 31.6,8.3 C23.3,18.9 5,13.6 0,0Z" fill="url(#g6)" stroke="#8c5430" stroke-opacity=".75" stroke-width="1"/><path d="M4,0 Q16.6,-5.3 29.3,-9.1" fill="none" stroke="#8c5430" stroke-opacity=".4" stroke-width=".6"/><path d="M4,0 Q16.6,0 29.3,0" fill="none" stroke="#8c5430" stroke-opacity=".4" stroke-width=".6"/><path d="M4,0 Q16.6,5.3 29.3,9.1" fill="none" stroke="#8c5430" stroke-opacity=".4" stroke-width=".6"/></g><g transform="translate(98,158) rotate(222.8)"><path d="M0,0 C4.9,-14 22.9,-19.5 31.1,-8.3 C34.4,-2.3 34.4,3 31.1,8.3 C22.9,16.4 4.9,11.8 0,0Z" fill="url(#g6)" stroke="#8c5430" stroke-opacity=".75" stroke-width="1"/><path d="M3.9,0 Q16.4,-5.3 28.8,-9.1" fill="none" stroke="#8c5430" stroke-opacity=".4" stroke-width=".6"/><path d="M3.9,0 Q16.4,0 28.8,0" fill="none" stroke="#8c5430" stroke-opacity=".4" stroke-width=".6"/><path d="M3.9,0 Q16.4,5.3 28.8,9.1" fill="none" stroke="#8c5430" stroke-opacity=".4" stroke-width=".6"/></g><g transform="translate(98,158) rotate(273.3)"><path d="M0,0 C5.3,-14.5 24.6,-20.1 33.3,-8.3 C36.9,-2.3 36.9,3 33.3,8.3 C24.6,19 5.3,13.7 0,0Z" fill="url(#g6)" stroke="#8c5430" stroke-opacity=".75" stroke-width="1"/><path d="M4.2,0 Q17.6,-5.3 30.9,-9.1" fill="none" stroke="#8c5430" stroke-opacity=".4" stroke-width=".6"/><path d="M4.2,0 Q17.6,0 30.9,0" fill="none" stroke="#8c5430" stroke-opacity=".4" stroke-width=".6"/><path d="M4.2,0 Q17.6,5.3 30.9,9.1" fill="none" stroke="#8c5430" stroke-opacity=".4" stroke-width=".6"/></g><g transform="translate(98,158) rotate(325.5)"><path d="M0,0 C5.6,-12.3 26.1,-17 35.4,-8.3 C39.2,-2.3 39.2,3 35.4,8.3 C26.1,16.1 5.6,11.6 0,0Z" fill="url(#g6)" stroke="#8c5430" stroke-opacity=".75" stroke-width="1"/><path d="M4.5,0 Q18.6,-5.3 32.8,-9.1" fill="none" stroke="#8c5430" stroke-opacity=".4" stroke-width=".6"/><path d="M4.5,0 Q18.6,0 32.8,0" fill="none" stroke="#8c5430" stroke-opacity=".4" stroke-width=".6"/><path d="M4.5,0 Q18.6,5.3 32.8,9.1" fill="none" stroke="#8c5430" stroke-opacity=".4" stroke-width=".6"/></g><g transform="translate(98,158) rotate(33.8)"><path d="M0,0 C3.4,-8.3 15.9,-11.6 21.6,-5.9 C23.8,-1.6 23.8,2.1 21.6,5.9 C15.9,11.9 3.4,8.6 0,0Z" fill="url(#g6)" stroke="#8c5430" stroke-opacity=".75" stroke-width="1"/><path d="M2.7,0 Q11.4,-3.7 20,-6.4" fill="none" stroke="#8c5430" stroke-opacity=".4" stroke-width=".6"/><path d="M2.7,0 Q11.4,0 20,0" fill="none" stroke="#8c5430" stroke-opacity=".4" stroke-width=".6"/><path d="M2.7,0 Q11.4,3.7 20,6.4" fill="none" stroke="#8c5430" stroke-opacity=".4" stroke-width=".6"/></g><g transform="translate(98,158) rotate(107.2)"><path d="M0,0 C3.5,-8.5 16.3,-11.8 22.1,-5.9 C24.4,-1.6 24.4,2.1 22.1,5.9 C16.3,12.6 3.5,9.1 0,0Z" fill="url(#g6)" stroke="#8c5430" stroke-opacity=".75" stroke-width="1"/><path d="M2.8,0 Q11.6,-3.7 20.4,-6.4" fill="none" stroke="#8c5430" stroke-opacity=".4" stroke-width=".6"/><path d="M2.8,0 Q11.6,0 20.4,0" fill="none" stroke="#8c5430" stroke-opacity=".4" stroke-width=".6"/><path d="M2.8,0 Q11.6,3.7 20.4,6.4" fill="none" stroke="#8c5430" stroke-opacity=".4" stroke-width=".6"/></g><g transform="translate(98,158) rotate(186.5)"><path d="M0,0 C3.7,-9.8 17.4,-13.6 23.6,-5.9 C26.1,-1.6 26.1,2.1 23.6,5.9 C17.4,13.7 3.7,9.8 0,0Z" fill="url(#g6)" stroke="#8c5430" stroke-opacity=".75" stroke-width="1"/><path d="M3,0 Q12.4,-3.7 21.9,-6.4" fill="none" stroke="#8c5430" stroke-opacity=".4" stroke-width=".6"/><path d="M3,0 Q12.4,0 21.9,0" fill="none" stroke="#8c5430" stroke-opacity=".4" stroke-width=".6"/><path d="M3,0 Q12.4,3.7 21.9,6.4" fill="none" stroke="#8c5430" stroke-opacity=".4" stroke-width=".6"/></g><g transform="translate(98,158) rotate(254.2)"><path d="M0,0 C3.2,-8.3 15,-11.5 20.4,-5.9 C22.5,-1.6 22.5,2.1 20.4,5.9 C15,11.4 3.2,8.2 0,0Z" fill="url(#g6)" stroke="#8c5430" stroke-opacity=".75" stroke-width="1"/><path d="M2.6,0 Q10.7,-3.7 18.9,-6.4" fill="none" stroke="#8c5430" stroke-opacity=".4" stroke-width=".6"/><path d="M2.6,0 Q10.7,0 18.9,0" fill="none" stroke="#8c5430" stroke-opacity=".4" stroke-width=".6"/><path d="M2.6,0 Q10.7,3.7 18.9,6.4" fill="none" stroke="#8c5430" stroke-opacity=".4" stroke-width=".6"/></g><g transform="translate(98,158) rotate(330.7)"><path d="M0,0 C3.6,-10.5 16.6,-14.6 22.6,-5.9 C24.9,-1.6 24.9,2.1 22.6,5.9 C16.6,11.4 3.6,8.2 0,0Z" fill="url(#g6)" stroke="#8c5430" stroke-opacity=".75" stroke-width="1"/><path d="M2.8,0 Q11.9,-3.7 20.9,-6.4" fill="none" stroke="#8c5430" stroke-opacity=".4" stroke-width=".6"/><path d="M2.8,0 Q11.9,0 20.9,0" fill="none" stroke="#8c5430" stroke-opacity=".4" stroke-width=".6"/><path d="M2.8,0 Q11.9,3.7 20.9,6.4" fill="none" stroke="#8c5430" stroke-opacity=".4" stroke-width=".6"/></g><g transform="translate(98,158) rotate(55.9)"><path d="M0,0 C2,-5.7 9.2,-7.9 12.5,-3.4 C13.8,-0.9 13.8,1.2 12.5,3.4 C9.2,7.2 2,5.2 0,0Z" fill="url(#g6)" stroke="#8c5430" stroke-opacity=".75" stroke-width="1"/><path d="M1.6,0 Q6.6,-2.2 11.6,-3.7" fill="none" stroke="#8c5430" stroke-opacity=".4" stroke-width=".6"/><path d="M1.6,0 Q6.6,0 11.6,0" fill="none" stroke="#8c5430" stroke-opacity=".4" stroke-width=".6"/><path d="M1.6,0 Q6.6,2.2 11.6,3.7" fill="none" stroke="#8c5430" stroke-opacity=".4" stroke-width=".6"/></g><g transform="translate(98,158) rotate(151)"><path d="M0,0 C1.8,-5.5 8.5,-7.6 11.6,-3.4 C12.8,-0.9 12.8,1.2 11.6,3.4 C8.5,8 1.8,5.7 0,0Z" fill="url(#g6)" stroke="#8c5430" stroke-opacity=".75" stroke-width="1"/><path d="M1.5,0 Q6.1,-2.2 10.7,-3.7" fill="none" stroke="#8c5430" stroke-opacity=".4" stroke-width=".6"/><path d="M1.5,0 Q6.1,0 10.7,0" fill="none" stroke="#8c5430" stroke-opacity=".4" stroke-width=".6"/><path d="M1.5,0 Q6.1,2.2 10.7,3.7" fill="none" stroke="#8c5430" stroke-opacity=".4" stroke-width=".6"/></g><g transform="translate(98,158) rotate(239.6)"><path d="M0,0 C2.1,-5.7 9.6,-7.9 13.1,-3.4 C14.4,-0.9 14.4,1.2 13.1,3.4 C9.6,8.1 2.1,5.8 0,0Z" fill="url(#g6)" stroke="#8c5430" stroke-opacity=".75" stroke-width="1"/><path d="M1.7,0 Q6.9,-2.2 12.1,-3.7" fill="none" stroke="#8c5430" stroke-opacity=".4" stroke-width=".6"/><path d="M1.7,0 Q6.9,0 12.1,0" fill="none" stroke="#8c5430" stroke-opacity=".4" stroke-width=".6"/><path d="M1.7,0 Q6.9,2.2 12.1,3.7" fill="none" stroke="#8c5430" stroke-opacity=".4" stroke-width=".6"/></g><g transform="translate(98,158) rotate(329.8)"><path d="M0,0 C1.9,-5.7 9,-7.9 12.2,-3.4 C13.5,-0.9 13.5,1.2 12.2,3.4 C9,8.3 1.9,6 0,0Z" fill="url(#g6)" stroke="#8c5430" stroke-opacity=".75" stroke-width="1"/><path d="M1.5,0 Q6.4,-2.2 11.3,-3.7" fill="none" stroke="#8c5430" stroke-opacity=".4" stroke-width=".6"/><path d="M1.5,0 Q6.4,0 11.3,0" fill="none" stroke="#8c5430" stroke-opacity=".4" stroke-width=".6"/><path d="M1.5,0 Q6.4,2.2 11.3,3.7" fill="none" stroke="#8c5430" stroke-opacity=".4" stroke-width=".6"/></g><circle cx="98" cy="158" r="3.6" fill="#8c5430"/></g><g filter="url(#wc)"><g transform="translate(28,132) rotate(47.4)"><path d="M0,0 C2.9,-12.9 15,-16.3 21.8,-5.9 Q24.8,-1.3 24.3,0.7 Q23.3,4.5 21.8,5.9 C15,16.6 2.9,13.2 0,0Z" fill="url(#g7)" stroke="#b56e30" stroke-opacity=".75" stroke-width="1"/><path d="M2.9,0 Q12.1,-4.5 21.4,-7.8" fill="none" stroke="#b56e30" stroke-opacity=".4" stroke-width=".6"/><path d="M2.9,0 Q12.1,0 21.4,0" fill="none" stroke="#b56e30" stroke-opacity=".4" stroke-width=".6"/><path d="M2.9,0 Q12.1,4.5 21.4,7.8" fill="none" stroke="#b56e30" stroke-opacity=".4" stroke-width=".6"/></g><g transform="translate(28,132) rotate(113.5)"><path d="M0,0 C3,-11.7 15.7,-14.8 22.8,-5.9 Q25.9,-1.3 25.3,0.7 Q24.3,4.5 22.8,5.9 C15.7,15.5 3,12.3 0,0Z" fill="url(#g7)" stroke="#b56e30" stroke-opacity=".75" stroke-width="1"/><path d="M3,0 Q12.7,-4.5 22.3,-7.8" fill="none" stroke="#b56e30" stroke-opacity=".4" stroke-width=".6"/><path d="M3,0 Q12.7,0 22.3,0" fill="none" stroke="#b56e30" stroke-opacity=".4" stroke-width=".6"/><path d="M3,0 Q12.7,4.5 22.3,7.8" fill="none" stroke="#b56e30" stroke-opacity=".4" stroke-width=".6"/></g><g transform="translate(28,132) rotate(186.2)"><path d="M0,0 C2.7,-12.5 14,-15.8 20.3,-5.9 Q23,-1.3 22.5,0.7 Q21.6,4.5 20.3,5.9 C14,17.1 2.7,13.6 0,0Z" fill="url(#g7)" stroke="#b56e30" stroke-opacity=".75" stroke-width="1"/><path d="M2.7,0 Q11.3,-4.5 19.8,-7.8" fill="none" stroke="#b56e30" stroke-opacity=".4" stroke-width=".6"/><path d="M2.7,0 Q11.3,0 19.8,0" fill="none" stroke="#b56e30" stroke-opacity=".4" stroke-width=".6"/><path d="M2.7,0 Q11.3,4.5 19.8,7.8" fill="none" stroke="#b56e30" stroke-opacity=".4" stroke-width=".6"/></g><g transform="translate(28,132) rotate(263.6)"><path d="M0,0 C3.1,-11.7 16,-14.8 23.3,-5.9 Q26.4,-1.3 25.9,0.7 Q24.9,4.5 23.3,5.9 C16,16.1 3.1,12.8 0,0Z" fill="url(#g7)" stroke="#b56e30" stroke-opacity=".75" stroke-width="1"/><path d="M3.1,0 Q12.9,-4.5 22.8,-7.8" fill="none" stroke="#b56e30" stroke-opacity=".4" stroke-width=".6"/><path d="M3.1,0 Q12.9,0 22.8,0" fill="none" stroke="#b56e30" stroke-opacity=".4" stroke-width=".6"/><path d="M3.1,0 Q12.9,4.5 22.8,7.8" fill="none" stroke="#b56e30" stroke-opacity=".4" stroke-width=".6"/></g><g transform="translate(28,132) rotate(329.6)"><path d="M0,0 C2.9,-13.1 15.1,-16.5 22,-5.9 Q24.9,-1.3 24.4,0.7 Q23.4,4.5 22,5.9 C15.1,13.6 2.9,10.8 0,0Z" fill="url(#g7)" stroke="#b56e30" stroke-opacity=".75" stroke-width="1"/><path d="M2.9,0 Q12.2,-4.5 21.5,-7.8" fill="none" stroke="#b56e30" stroke-opacity=".4" stroke-width=".6"/><path d="M2.9,0 Q12.2,0 21.5,0" fill="none" stroke="#b56e30" stroke-opacity=".4" stroke-width=".6"/><path d="M2.9,0 Q12.2,4.5 21.5,7.8" fill="none" stroke="#b56e30" stroke-opacity=".4" stroke-width=".6"/></g></g><circle cx="31.2" cy="132.2" r="0.9" fill="#2a1c17" fill-opacity=".85"/><circle cx="31.5" cy="134.2" r="0.9" fill="#2a1c17" fill-opacity=".85"/><circle cx="30.6" cy="135.8" r="0.9" fill="#2a1c17" fill-opacity=".85"/><circle cx="28" cy="136.4" r="0.9" fill="#2a1c17" fill-opacity=".85"/><circle cx="25.8" cy="134.9" r="0.9" fill="#2a1c17" fill-opacity=".85"/><circle cx="25" cy="134.3" r="0.9" fill="#2a1c17" fill-opacity=".85"/><circle cx="24.5" cy="131.8" r="0.9" fill="#2a1c17" fill-opacity=".85"/><circle cx="23.5" cy="129.9" r="0.9" fill="#2a1c17" fill-opacity=".85"/><circle cx="26.1" cy="128.4" r="0.9" fill="#2a1c17" fill-opacity=".85"/><circle cx="28.4" cy="128.2" r="0.9" fill="#2a1c17" fill-opacity=".85"/><circle cx="29.9" cy="129" r="0.9" fill="#2a1c17" fill-opacity=".85"/><circle cx="32.1" cy="129.5" r="0.9" fill="#2a1c17" fill-opacity=".85"/><circle cx="28" cy="132" r="2.3" fill="#b56e30"/><g filter="url(#wc)"><g transform="translate(178,36) rotate(-1.7)"><path d="M0,0 C3.4,-12.6 17.8,-15.9 25.9,-6.3 Q29.3,-1.4 28.7,0.7 Q27.6,4.9 25.9,6.3 C17.8,16.7 3.4,13.2 0,0Z" fill="url(#g8)" stroke="#b08e69" stroke-opacity=".75" stroke-width="1"/><path d="M3.4,0 Q14.4,-4.9 25.3,-8.4" fill="none" stroke="#b08e69" stroke-opacity=".4" stroke-width=".6"/><path d="M3.4,0 Q14.4,0 25.3,0" fill="none" stroke="#b08e69" stroke-opacity=".4" stroke-width=".6"/><path d="M3.4,0 Q14.4,4.9 25.3,8.4" fill="none" stroke="#b08e69" stroke-opacity=".4" stroke-width=".6"/></g><g transform="translate(178,36) rotate(58.3)"><path d="M0,0 C2.9,-13 15.2,-16.4 22.1,-6.3 Q25.1,-1.4 24.6,0.7 Q23.6,4.9 22.1,6.3 C15.2,17.8 2.9,14.1 0,0Z" fill="url(#g8)" stroke="#b08e69" stroke-opacity=".75" stroke-width="1"/><path d="M2.9,0 Q12.3,-4.9 21.6,-8.4" fill="none" stroke="#b08e69" stroke-opacity=".4" stroke-width=".6"/><path d="M2.9,0 Q12.3,0 21.6,0" fill="none" stroke="#b08e69" stroke-opacity=".4" stroke-width=".6"/><path d="M2.9,0 Q12.3,4.9 21.6,8.4" fill="none" stroke="#b08e69" stroke-opacity=".4" stroke-width=".6"/></g><g transform="translate(178,36) rotate(141)"><path d="M0,0 C3.3,-14.5 17.2,-18.3 25,-6.3 Q28.3,-1.4 27.8,0.7 Q26.7,4.9 25,6.3 C17.2,15.4 3.3,12.2 0,0Z" fill="url(#g8)" stroke="#b08e69" stroke-opacity=".75" stroke-width="1"/><path d="M3.3,0 Q13.9,-4.9 24.4,-8.4" fill="none" stroke="#b08e69" stroke-opacity=".4" stroke-width=".6"/><path d="M3.3,0 Q13.9,0 24.4,0" fill="none" stroke="#b08e69" stroke-opacity=".4" stroke-width=".6"/><path d="M3.3,0 Q13.9,4.9 24.4,8.4" fill="none" stroke="#b08e69" stroke-opacity=".4" stroke-width=".6"/></g><g transform="translate(178,36) rotate(199.4)"><path d="M0,0 C3.2,-12.2 16.3,-15.4 23.7,-6.3 Q26.9,-1.4 26.3,0.7 Q25.3,4.9 23.7,6.3 C16.3,15.2 3.2,12 0,0Z" fill="url(#g8)" stroke="#b08e69" stroke-opacity=".75" stroke-width="1"/><path d="M3.2,0 Q13.2,-4.9 23.2,-8.4" fill="none" stroke="#b08e69" stroke-opacity=".4" stroke-width=".6"/><path d="M3.2,0 Q13.2,0 23.2,0" fill="none" stroke="#b08e69" stroke-opacity=".4" stroke-width=".6"/><path d="M3.2,0 Q13.2,4.9 23.2,8.4" fill="none" stroke="#b08e69" stroke-opacity=".4" stroke-width=".6"/></g><g transform="translate(178,36) rotate(276.3)"><path d="M0,0 C3.3,-12.9 16.9,-16.4 24.6,-6.3 Q27.9,-1.4 27.3,0.7 Q26.2,4.9 24.6,6.3 C16.9,15.6 3.3,12.4 0,0Z" fill="url(#g8)" stroke="#b08e69" stroke-opacity=".75" stroke-width="1"/><path d="M3.3,0 Q13.7,-4.9 24,-8.4" fill="none" stroke="#b08e69" stroke-opacity=".4" stroke-width=".6"/><path d="M3.3,0 Q13.7,0 24,0" fill="none" stroke="#b08e69" stroke-opacity=".4" stroke-width=".6"/><path d="M3.3,0 Q13.7,4.9 24,8.4" fill="none" stroke="#b08e69" stroke-opacity=".4" stroke-width=".6"/></g></g><g filter="url(#wc)"><g transform="translate(72,72) rotate(47.4)"><path d="M0,0 C8.1,-15.6 37.7,-21.7 51.2,-9.9 C56.6,-2.7 56.6,3.6 51.2,9.9 C37.7,19.5 8.1,14.1 0,0Z" fill="url(#g9)" stroke="#9c4e3b" stroke-opacity=".75" stroke-width="1"/><path d="M6.5,0 Q26.9,-6.3 47.4,-10.8" fill="none" stroke="#9c4e3b" stroke-opacity=".4" stroke-width=".6"/><path d="M6.5,0 Q26.9,0 47.4,0" fill="none" stroke="#9c4e3b" stroke-opacity=".4" stroke-width=".6"/><path d="M6.5,0 Q26.9,6.3 47.4,10.8" fill="none" stroke="#9c4e3b" stroke-opacity=".4" stroke-width=".6"/></g><g transform="translate(72,72) rotate(94.5)"><path d="M0,0 C8,-13.9 37.3,-19.4 50.6,-9.9 C55.9,-2.7 55.9,3.6 50.6,9.9 C37.3,23.1 8,16.6 0,0Z" fill="url(#g9)" stroke="#9c4e3b" stroke-opacity=".75" stroke-width="1"/><path d="M6.4,0 Q26.6,-6.3 46.8,-10.8" fill="none" stroke="#9c4e3b" stroke-opacity=".4" stroke-width=".6"/><path d="M6.4,0 Q26.6,0 46.8,0" fill="none" stroke="#9c4e3b" stroke-opacity=".4" stroke-width=".6"/><path d="M6.4,0 Q26.6,6.3 46.8,10.8" fill="none" stroke="#9c4e3b" stroke-opacity=".4" stroke-width=".6"/></g><g transform="translate(72,72) rotate(163.1)"><path d="M0,0 C7.5,-17 34.9,-23.6 47.4,-9.9 C52.3,-2.7 52.3,3.6 47.4,9.9 C34.9,19.2 7.5,13.8 0,0Z" fill="url(#g9)" stroke="#9c4e3b" stroke-opacity=".75" stroke-width="1"/><path d="M6,0 Q24.9,-6.3 43.9,-10.8" fill="none" stroke="#9c4e3b" stroke-opacity=".4" stroke-width=".6"/><path d="M6,0 Q24.9,0 43.9,0" fill="none" stroke="#9c4e3b" stroke-opacity=".4" stroke-width=".6"/><path d="M6,0 Q24.9,6.3 43.9,10.8" fill="none" stroke="#9c4e3b" stroke-opacity=".4" stroke-width=".6"/></g><g transform="translate(72,72) rotate(216.2)"><path d="M0,0 C7.6,-13.9 35.5,-19.3 48.2,-9.9 C53.3,-2.7 53.3,3.6 48.2,9.9 C35.5,23.8 7.6,17.1 0,0Z" fill="url(#g9)" stroke="#9c4e3b" stroke-opacity=".75" stroke-width="1"/><path d="M6.1,0 Q25.4,-6.3 44.6,-10.8" fill="none" stroke="#9c4e3b" stroke-opacity=".4" stroke-width=".6"/><path d="M6.1,0 Q25.4,0 44.6,0" fill="none" stroke="#9c4e3b" stroke-opacity=".4" stroke-width=".6"/><path d="M6.1,0 Q25.4,6.3 44.6,10.8" fill="none" stroke="#9c4e3b" stroke-opacity=".4" stroke-width=".6"/></g><g transform="translate(72,72) rotate(277.8)"><path d="M0,0 C7.3,-14 34.2,-19.4 46.4,-9.9 C51.3,-2.7 51.3,3.6 46.4,9.9 C34.2,22.7 7.3,16.3 0,0Z" fill="url(#g9)" stroke="#9c4e3b" stroke-opacity=".75" stroke-width="1"/><path d="M5.9,0 Q24.4,-6.3 43,-10.8" fill="none" stroke="#9c4e3b" stroke-opacity=".4" stroke-width=".6"/><path d="M5.9,0 Q24.4,0 43,0" fill="none" stroke="#9c4e3b" stroke-opacity=".4" stroke-width=".6"/><path d="M5.9,0 Q24.4,6.3 43,10.8" fill="none" stroke="#9c4e3b" stroke-opacity=".4" stroke-width=".6"/></g><g transform="translate(72,72) rotate(341.1)"><path d="M0,0 C7.8,-16.4 36.2,-22.8 49.2,-9.9 C54.4,-2.7 54.4,3.6 49.2,9.9 C36.2,23.7 7.8,17 0,0Z" fill="url(#g9)" stroke="#9c4e3b" stroke-opacity=".75" stroke-width="1"/><path d="M6.2,0 Q25.9,-6.3 45.6,-10.8" fill="none" stroke="#9c4e3b" stroke-opacity=".4" stroke-width=".6"/><path d="M6.2,0 Q25.9,0 45.6,0" fill="none" stroke="#9c4e3b" stroke-opacity=".4" stroke-width=".6"/><path d="M6.2,0 Q25.9,6.3 45.6,10.8" fill="none" stroke="#9c4e3b" stroke-opacity=".4" stroke-width=".6"/></g><g transform="translate(72,72) rotate(17.5)"><path d="M0,0 C8.9,-20.9 41.5,-29 56.4,-14.2 C62.3,-3.9 62.3,5.2 56.4,14.2 C41.5,31.2 8.9,22.5 0,0Z" fill="url(#g10)" stroke="#9c4e3b" stroke-opacity=".75" stroke-width="1"/><path d="M7.1,0 Q29.7,-9 52.2,-15.5" fill="none" stroke="#9c4e3b" stroke-opacity=".4" stroke-width=".6"/><path d="M7.1,0 Q29.7,-4.5 52.2,-7.7" fill="none" stroke="#9c4e3b" stroke-opacity=".4" stroke-width=".6"/><path d="M7.1,0 Q29.7,0 52.2,0" fill="none" stroke="#9c4e3b" stroke-opacity=".4" stroke-width=".6"/><path d="M7.1,0 Q29.7,4.5 52.2,7.7" fill="none" stroke="#9c4e3b" stroke-opacity=".4" stroke-width=".6"/><path d="M7.1,0 Q29.7,9 52.2,15.5" fill="none" stroke="#9c4e3b" stroke-opacity=".4" stroke-width=".6"/></g><g transform="translate(72,72) rotate(68.1)"><path d="M0,0 C8.1,-22.5 37.9,-31.2 51.4,-14.2 C56.8,-3.9 56.8,5.2 51.4,14.2 C37.9,33.2 8.1,23.9 0,0Z" fill="url(#g10)" stroke="#9c4e3b" stroke-opacity=".75" stroke-width="1"/><path d="M6.5,0 Q27,-9 47.6,-15.5" fill="none" stroke="#9c4e3b" stroke-opacity=".4" stroke-width=".6"/><path d="M6.5,0 Q27,-4.5 47.6,-7.7" fill="none" stroke="#9c4e3b" stroke-opacity=".4" stroke-width=".6"/><path d="M6.5,0 Q27,0 47.6,0" fill="none" stroke="#9c4e3b" stroke-opacity=".4" stroke-width=".6"/><path d="M6.5,0 Q27,4.5 47.6,7.7" fill="none" stroke="#9c4e3b" stroke-opacity=".4" stroke-width=".6"/><path d="M6.5,0 Q27,9 47.6,15.5" fill="none" stroke="#9c4e3b" stroke-opacity=".4" stroke-width=".6"/></g><g transform="translate(72,72) rotate(128.1)"><path d="M0,0 C8.4,-21.7 39.3,-30.2 53.3,-14.2 C58.9,-3.9 58.9,5.2 53.3,14.2 C39.3,33 8.4,23.8 0,0Z" fill="url(#g10)" stroke="#9c4e3b" stroke-opacity=".75" stroke-width="1"/><path d="M6.7,0 Q28.1,-9 49.4,-15.5" fill="none" stroke="#9c4e3b" stroke-opacity=".4" stroke-width=".6"/><path d="M6.7,0 Q28.1,-4.5 49.4,-7.7" fill="none" stroke="#9c4e3b" stroke-opacity=".4" stroke-width=".6"/><path d="M6.7,0 Q28.1,0 49.4,0" fill="none" stroke="#9c4e3b" stroke-opacity=".4" stroke-width=".6"/><path d="M6.7,0 Q28.1,4.5 49.4,7.7" fill="none" stroke="#9c4e3b" stroke-opacity=".4" stroke-width=".6"/><path d="M6.7,0 Q28.1,9 49.4,15.5" fill="none" stroke="#9c4e3b" stroke-opacity=".4" stroke-width=".6"/></g><g transform="translate(72,72) rotate(192.2)"><path d="M0,0 C8.8,-24.1 41.2,-33.5 55.9,-14.2 C61.7,-3.9 61.7,5.2 55.9,14.2 C41.2,30.6 8.8,22 0,0Z" fill="url(#g10)" stroke="#9c4e3b" stroke-opacity=".75" stroke-width="1"/><path d="M7.1,0 Q29.4,-9 51.7,-15.5" fill="none" stroke="#9c4e3b" stroke-opacity=".4" stroke-width=".6"/><path d="M7.1,0 Q29.4,-4.5 51.7,-7.7" fill="none" stroke="#9c4e3b" stroke-opacity=".4" stroke-width=".6"/><path d="M7.1,0 Q29.4,0 51.7,0" fill="none" stroke="#9c4e3b" stroke-opacity=".4" stroke-width=".6"/><path d="M7.1,0 Q29.4,4.5 51.7,7.7" fill="none" stroke="#9c4e3b" stroke-opacity=".4" stroke-width=".6"/><path d="M7.1,0 Q29.4,9 51.7,15.5" fill="none" stroke="#9c4e3b" stroke-opacity=".4" stroke-width=".6"/></g><g transform="translate(72,72) rotate(255.5)"><path d="M0,0 C9.2,-20.2 42.7,-28.1 58,-14.2 C64.1,-3.9 64.1,5.2 58,14.2 C42.7,34.9 9.2,25.2 0,0Z" fill="url(#g10)" stroke="#9c4e3b" stroke-opacity=".75" stroke-width="1"/><path d="M7.3,0 Q30.5,-9 53.7,-15.5" fill="none" stroke="#9c4e3b" stroke-opacity=".4" stroke-width=".6"/><path d="M7.3,0 Q30.5,-4.5 53.7,-7.7" fill="none" stroke="#9c4e3b" stroke-opacity=".4" stroke-width=".6"/><path d="M7.3,0 Q30.5,0 53.7,0" fill="none" stroke="#9c4e3b" stroke-opacity=".4" stroke-width=".6"/><path d="M7.3,0 Q30.5,4.5 53.7,7.7" fill="none" stroke="#9c4e3b" stroke-opacity=".4" stroke-width=".6"/><path d="M7.3,0 Q30.5,9 53.7,15.5" fill="none" stroke="#9c4e3b" stroke-opacity=".4" stroke-width=".6"/></g><g transform="translate(72,72) rotate(314.7)"><path d="M0,0 C8.3,-22.4 38.5,-31.1 52.3,-14.2 C57.8,-3.9 57.8,5.2 52.3,14.2 C38.5,32.5 8.3,23.4 0,0Z" fill="url(#g10)" stroke="#9c4e3b" stroke-opacity=".75" stroke-width="1"/><path d="M6.6,0 Q27.5,-9 48.4,-15.5" fill="none" stroke="#9c4e3b" stroke-opacity=".4" stroke-width=".6"/><path d="M6.6,0 Q27.5,-4.5 48.4,-7.7" fill="none" stroke="#9c4e3b" stroke-opacity=".4" stroke-width=".6"/><path d="M6.6,0 Q27.5,0 48.4,0" fill="none" stroke="#9c4e3b" stroke-opacity=".4" stroke-width=".6"/><path d="M6.6,0 Q27.5,4.5 48.4,7.7" fill="none" stroke="#9c4e3b" stroke-opacity=".4" stroke-width=".6"/><path d="M6.6,0 Q27.5,9 48.4,15.5" fill="none" stroke="#9c4e3b" stroke-opacity=".4" stroke-width=".6"/></g></g><circle cx="72" cy="72" r="18" fill="#f7ece0" fill-opacity=".6"/><path d="M82.2,72.7 L90.1,73.3" stroke="#fbf3e6" stroke-width=".9" stroke-linecap="round"/><circle cx="90.1" cy="73.3" r="1.3" fill="#2a1c17"/><path d="M81.8,75 L91.1,77.9" stroke="#fbf3e6" stroke-width=".9" stroke-linecap="round"/><circle cx="91.1" cy="77.9" r="1.3" fill="#2a1c17"/><path d="M80.3,78 L88.4,83.8" stroke="#fbf3e6" stroke-width=".9" stroke-linecap="round"/><circle cx="88.4" cy="83.8" r="1.3" fill="#2a1c17"/><path d="M78.7,79.7 L84.6,86.4" stroke="#fbf3e6" stroke-width=".9" stroke-linecap="round"/><circle cx="84.6" cy="86.4" r="1.3" fill="#2a1c17"/><path d="M76.7,81 L81,89.2" stroke="#fbf3e6" stroke-width=".9" stroke-linecap="round"/><circle cx="81" cy="89.2" r="1.3" fill="#2a1c17"/><path d="M72.9,82.2 L73.7,91" stroke="#fbf3e6" stroke-width=".9" stroke-linecap="round"/><circle cx="73.7" cy="91" r="1.3" fill="#2a1c17"/><path d="M70.2,82 L68.8,89.3" stroke="#fbf3e6" stroke-width=".9" stroke-linecap="round"/><circle cx="68.8" cy="89.3" r="1.3" fill="#2a1c17"/><path d="M67.1,81 L62.3,89.9" stroke="#fbf3e6" stroke-width=".9" stroke-linecap="round"/><circle cx="62.3" cy="89.9" r="1.3" fill="#2a1c17"/><path d="M64.7,79.1 L58.6,85.1" stroke="#fbf3e6" stroke-width=".9" stroke-linecap="round"/><circle cx="58.6" cy="85.1" r="1.3" fill="#2a1c17"/><path d="M63.2,77.1 L56.4,80.9" stroke="#fbf3e6" stroke-width=".9" stroke-linecap="round"/><circle cx="56.4" cy="80.9" r="1.3" fill="#2a1c17"/><path d="M62,74.2 L52.6,76.2" stroke="#fbf3e6" stroke-width=".9" stroke-linecap="round"/><circle cx="52.6" cy="76.2" r="1.3" fill="#2a1c17"/><path d="M61.8,72.3 L54.9,72.5" stroke="#fbf3e6" stroke-width=".9" stroke-linecap="round"/><circle cx="54.9" cy="72.5" r="1.3" fill="#2a1c17"/><path d="M62.2,69.2 L53.9,66.9" stroke="#fbf3e6" stroke-width=".9" stroke-linecap="round"/><circle cx="53.9" cy="66.9" r="1.3" fill="#2a1c17"/><path d="M63.7,66.1 L56.9,61.2" stroke="#fbf3e6" stroke-width=".9" stroke-linecap="round"/><circle cx="56.9" cy="61.2" r="1.3" fill="#2a1c17"/><path d="M64.7,64.9 L57.9,58.2" stroke="#fbf3e6" stroke-width=".9" stroke-linecap="round"/><circle cx="57.9" cy="58.2" r="1.3" fill="#2a1c17"/><path d="M67.1,63.1 L62.5,54.8" stroke="#fbf3e6" stroke-width=".9" stroke-linecap="round"/><circle cx="62.5" cy="54.8" r="1.3" fill="#2a1c17"/><path d="M70,62 L68.4,54.4" stroke="#fbf3e6" stroke-width=".9" stroke-linecap="round"/><circle cx="68.4" cy="54.4" r="1.3" fill="#2a1c17"/><path d="M74,62 L75.3,55" stroke="#fbf3e6" stroke-width=".9" stroke-linecap="round"/><circle cx="75.3" cy="55" r="1.3" fill="#2a1c17"/><path d="M75.7,62.5 L78.7,54.6" stroke="#fbf3e6" stroke-width=".9" stroke-linecap="round"/><circle cx="78.7" cy="54.6" r="1.3" fill="#2a1c17"/><path d="M79,64.6 L85.6,57.5" stroke="#fbf3e6" stroke-width=".9" stroke-linecap="round"/><circle cx="85.6" cy="57.5" r="1.3" fill="#2a1c17"/><path d="M80.8,66.8 L89.3,61.6" stroke="#fbf3e6" stroke-width=".9" stroke-linecap="round"/><circle cx="89.3" cy="61.6" r="1.3" fill="#2a1c17"/><path d="M81.8,69.1 L91.4,66.3" stroke="#fbf3e6" stroke-width=".9" stroke-linecap="round"/><circle cx="91.4" cy="66.3" r="1.3" fill="#2a1c17"/><circle cx="72" cy="72" r="11.4" fill="#2a1c17"/><circle cx="69" cy="69" r="4.2" fill="#4a3329"/><g filter="url(#wc)"><g transform="translate(146,104) rotate(-28.3)"><path d="M0,0 C4.3,-18.7 22.2,-23.6 32.2,-9 Q36.5,-2 35.8,1 Q34.3,7 32.2,9 C22.2,22.1 4.3,17.5 0,0Z" fill="url(#g7)" stroke="#b56e30" stroke-opacity=".75" stroke-width="1"/><path d="M4.3,0 Q17.9,-7 31.5,-12" fill="none" stroke="#b56e30" stroke-opacity=".4" stroke-width=".6"/><path d="M4.3,0 Q17.9,0 31.5,0" fill="none" stroke="#b56e30" stroke-opacity=".4" stroke-width=".6"/><path d="M4.3,0 Q17.9,7 31.5,12" fill="none" stroke="#b56e30" stroke-opacity=".4" stroke-width=".6"/></g><g transform="translate(146,104) rotate(56.6)"><path d="M0,0 C4.7,-18.6 24.2,-23.5 35.2,-9 Q39.9,-2 39.1,1 Q37.5,7 35.2,9 C24.2,25.5 4.7,20.2 0,0Z" fill="url(#g7)" stroke="#b56e30" stroke-opacity=".75" stroke-width="1"/><path d="M4.7,0 Q19.6,-7 34.4,-12" fill="none" stroke="#b56e30" stroke-opacity=".4" stroke-width=".6"/><path d="M4.7,0 Q19.6,0 34.4,0" fill="none" stroke="#b56e30" stroke-opacity=".4" stroke-width=".6"/><path d="M4.7,0 Q19.6,7 34.4,12" fill="none" stroke="#b56e30" stroke-opacity=".4" stroke-width=".6"/></g><g transform="translate(146,104) rotate(125.2)"><path d="M0,0 C4.4,-18 22.6,-22.7 32.8,-9 Q37.2,-2 36.5,1 Q35,7 32.8,9 C22.6,25.5 4.4,20.2 0,0Z" fill="url(#g7)" stroke="#b56e30" stroke-opacity=".75" stroke-width="1"/><path d="M4.4,0 Q18.2,-7 32.1,-12" fill="none" stroke="#b56e30" stroke-opacity=".4" stroke-width=".6"/><path d="M4.4,0 Q18.2,0 32.1,0" fill="none" stroke="#b56e30" stroke-opacity=".4" stroke-width=".6"/><path d="M4.4,0 Q18.2,7 32.1,12" fill="none" stroke="#b56e30" stroke-opacity=".4" stroke-width=".6"/></g><g transform="translate(146,104) rotate(204)"><path d="M0,0 C4.3,-20.2 22.1,-25.5 32.1,-9 Q36.4,-2 35.7,1 Q34.2,7 32.1,9 C22.1,26.2 4.3,20.8 0,0Z" fill="url(#g7)" stroke="#b56e30" stroke-opacity=".75" stroke-width="1"/><path d="M4.3,0 Q17.8,-7 31.4,-12" fill="none" stroke="#b56e30" stroke-opacity=".4" stroke-width=".6"/><path d="M4.3,0 Q17.8,0 31.4,0" fill="none" stroke="#b56e30" stroke-opacity=".4" stroke-width=".6"/><path d="M4.3,0 Q17.8,7 31.4,12" fill="none" stroke="#b56e30" stroke-opacity=".4" stroke-width=".6"/></g><g transform="translate(146,104) rotate(268.5)"><path d="M0,0 C4.6,-17.1 23.9,-21.6 34.7,-9 Q39.4,-2 38.6,1 Q37,7 34.7,9 C23.9,23.6 4.6,18.7 0,0Z" fill="url(#g7)" stroke="#b56e30" stroke-opacity=".75" stroke-width="1"/><path d="M4.6,0 Q19.3,-7 34,-12" fill="none" stroke="#b56e30" stroke-opacity=".4" stroke-width=".6"/><path d="M4.6,0 Q19.3,0 34,0" fill="none" stroke="#b56e30" stroke-opacity=".4" stroke-width=".6"/><path d="M4.6,0 Q19.3,7 34,12" fill="none" stroke="#b56e30" stroke-opacity=".4" stroke-width=".6"/></g></g><circle cx="152.7" cy="104" r="1.4" fill="#2a1c17" fill-opacity=".85"/><circle cx="153.3" cy="107" r="1.4" fill="#2a1c17" fill-opacity=".85"/><circle cx="149" cy="109.3" r="1.4" fill="#2a1c17" fill-opacity=".85"/><circle cx="145.4" cy="110.6" r="1.4" fill="#2a1c17" fill-opacity=".85"/><circle cx="142.5" cy="110.1" r="1.4" fill="#2a1c17" fill-opacity=".85"/><circle cx="140.8" cy="107.9" r="1.4" fill="#2a1c17" fill-opacity=".85"/><circle cx="138.1" cy="104.2" r="1.4" fill="#2a1c17" fill-opacity=".85"/><circle cx="141.5" cy="100.6" r="1.4" fill="#2a1c17" fill-opacity=".85"/><circle cx="143.4" cy="99.5" r="1.4" fill="#2a1c17" fill-opacity=".85"/><circle cx="145.9" cy="96.6" r="1.4" fill="#2a1c17" fill-opacity=".85"/><circle cx="149.8" cy="98.9" r="1.4" fill="#2a1c17" fill-opacity=".85"/><circle cx="150.5" cy="101.1" r="1.4" fill="#2a1c17" fill-opacity=".85"/><circle cx="146" cy="104" r="3.6" fill="#b56e30"/></svg>